PathFileType	4	(X/Y/Z)	D:\TRACE\v60_Jaco2_6-2-23\JustArmDRS_Motion1_4-platform.trc
DataRate	CameraRate	NumFrames	NumMarkers	Units	OrigDataRate	OrigDataStartFrame	OrigNumFrames
100.00	100.00	      43	5	mm	100.00	1704	      6812
Frame#	Time	Left_Front			Right_Front			Left_Aft			Right_Aft			Post			
		X1	Y1	Z1	X2	Y2	Z2	X3	Y3	Z3	X4	Y4	Z4	X5	Y5	Z5	

1704	17.030	-783.37067	2.65005	-640.18567	786.78235	4.23963	-645.81152	-691.44482	11.84771	494.62943	750.92267	11.48662	504.34323	2.99898	1299.49377	-975.04474	
1705	17.040	-782.05017	3.24216	-640.21704	787.49774	4.59115	-645.64832	-690.24292	11.48736	494.85684	752.04462	11.12241	504.49557	3.76485	1300.09753	-973.65063	
1706	17.050	-781.34247	3.77946	-640.31482	788.59546	5.40348	-645.66583	-689.47742	11.16811	495.04407	752.74976	10.74210	504.46219	4.45258	1300.90491	-972.90436	
1707	17.060	-780.65118	4.21935	-640.12054	789.50873	5.83398	-645.59039	-688.65118	10.94004	495.06918	753.64807	10.32317	504.73648	6.18320	1301.45190	-971.71710	
1708	17.070	-779.63733	4.84285	-639.87689	790.33069	6.15601	-645.42407	-687.51428	10.50825	495.14740	754.65173	10.17484	504.99258	6.71644	1302.03247	-970.96118	
1709	17.080	-778.50226	5.06373	-639.87299	791.52393	6.77428	-645.20453	-686.70978	10.06618	495.16196	755.79169	9.81604	505.04672	7.64179	1303.11475	-969.47870	
1710	17.090	-777.46521	5.58633	-639.53845	792.23132	7.21217	-645.34143	-685.68317	9.78083	495.27863	756.66473	9.52210	505.13129	8.25872	1303.59778	-968.68658	
1711	17.100	-776.78894	6.01873	-639.64618	793.31165	7.48184	-645.10315	-684.77795	9.60309	495.27960	757.63745	9.15574	505.22424	9.72923	1304.38635	-967.67078	
1712	17.110	-776.04779	6.45430	-639.50323	794.17218	8.17427	-644.98499	-683.99567	9.30938	495.41449	758.08618	8.88566	505.39005	10.73617	1304.96887	-966.76416	
1713	17.120	-774.88623	7.01179	-639.37701	794.93945	8.59443	-644.86237	-683.06653	8.76720	495.62210	759.23175	8.41233	505.50339	11.41592	1305.64368	-965.52783	
1714	17.130	-773.93542	7.64656	-639.37024	795.82471	8.99485	-644.95313	-681.95172	8.31509	495.78546	760.19379	8.08824	505.45377	12.11378	1306.53784	-964.72296	
1715	17.140	-773.07111	8.00906	-639.18744	796.88214	9.50504	-644.69434	-681.44086	8.19512	495.89597	761.06470	7.72491	505.59653	13.11860	1307.21069	-963.75134	
1716	17.150	-772.38306	8.63725	-639.26074	797.68640	10.14047	-644.55414	-680.57056	7.90300	495.97638	761.97845	7.44351	505.74832	14.16096	1307.95190	-962.54181	
1717	17.160	-771.69666	8.98996	-638.96759	798.51025	10.52509	-644.51495	-679.44745	7.57453	496.09274	762.97040	7.01295	506.01321	14.84527	1308.63721	-961.64709	
1718	17.170	-770.35144	9.34333	-638.91974	799.42102	10.90012	-644.26025	-678.68671	7.08933	496.28595	763.34528	6.76574	506.15280	15.72490	1309.35107	-960.36316	
1719	17.180	-769.58441	9.85770	-638.80353	800.09406	11.59293	-644.23053	-677.91711	6.75213	496.35233	764.69702	6.26660	506.09113	16.40412	1310.10608	-959.41266	
1720	17.190	-768.82898	10.28432	-638.35193	800.92090	12.05623	-644.15619	-677.04962	6.61977	496.31622	765.31848	5.90311	506.14380	17.47205	1310.82581	-957.85260	
1721	17.200	-768.26569	11.02757	-638.56165	801.90228	12.60919	-644.02637	-676.34198	6.17951	496.40027	766.07745	5.49473	506.28296	18.22190	1311.53992	-956.89307	
1722	17.210	-767.43781	11.55594	-638.40247	802.57733	13.01437	-643.90338	-675.52179	5.56887	496.55447	766.85370	5.16315	506.40335	19.18163	1312.42896	-955.78619	
1723	17.220	-766.29333	12.12349	-638.46210	803.53308	13.58404	-643.79724	-674.57501	5.29063	496.74994	767.62482	4.85697	506.51755	19.57843	1312.96924	-954.50592	
1724	17.230	-765.74310	12.54419	-638.15009	804.07318	13.99366	-643.85822	-673.82092	5.21984	496.75549	768.20966	4.43705	506.64575	20.41400	1313.91882	-953.47235	
1725	17.240	-764.82733	12.89618	-638.10083	804.91882	14.56914	-643.77289	-673.20935	4.82370	496.82446	769.73602	4.14022	506.75031	21.48824	1314.40051	-952.61475	
1726	17.250	-764.28107	13.61556	-637.97638	805.77246	14.99307	-643.34094	-672.34955	4.25374	497.04327	770.32813	3.68408	506.89240	22.49850	1315.17554	-951.55457	
1727	17.260	-763.60339	13.76125	-637.69531	806.59509	15.54557	-643.31860	-671.37555	3.96916	497.20114	770.75641	3.49593	507.03735	23.04495	1316.14282	-950.45593	
1728	17.270	-762.61115	14.48611	-637.71185	807.21960	15.96610	-643.21265	-670.80402	3.70522	497.21988	771.52441	2.94188	507.13690	23.72321	1316.64197	-949.48895	
1729	17.280	-761.84814	14.93766	-637.64014	807.84570	16.57745	-643.11102	-670.24194	3.34541	497.27426	772.17041	2.74395	507.22232	24.37187	1317.45972	-948.70886	
1730	17.290	-761.27954	15.49100	-637.46881	808.72864	16.99419	-642.78912	-669.42139	2.93082	497.51794	773.02795	2.32473	507.23361	25.02812	1318.12512	-947.34271	
1731	17.300	-760.67224	16.15001	-637.37830	809.51611	17.49892	-642.87738	-668.70154	2.47447	497.71088	773.20105	1.94136	507.43069	25.60354	1318.79602	-946.29480	
1732	17.310	-760.12091	16.64566	-637.47821	810.00134	17.89106	-642.81012	-667.98169	2.20256	497.76907	774.20758	1.58757	507.42725	26.56254	1319.77161	-944.96863	
1733	17.320	-759.48724	16.87948	-637.18231	810.62402	18.37799	-642.53284	-667.35486	1.89335	497.75543	775.07074	1.13986	507.55026	27.11389	1320.24609	-943.99823	
1734	17.330	-758.40808	17.36946	-637.04358	811.35986	18.95894	-642.34100	-666.88171	1.67814	497.86899	775.58514	0.88466	507.69559	28.10550	1321.03406	-942.65442	
1735	17.340	-757.91058	17.84872	-636.81488	811.94421	19.44648	-642.39508	-666.07794	1.14343	497.98309	776.10522	0.50029	507.96146	28.42890	1321.62195	-941.71832	
1736	17.350	-757.30060	18.24440	-636.64386	812.67084	19.84500	-642.11450	-665.33575	0.78670	498.10959	776.76953	0.26791	507.95642	28.97564	1322.43591	-940.24756	
1737	17.360	-756.81750	18.84546	-636.65625	813.37805	20.37838	-642.00995	-664.95441	0.54631	498.24429	777.35669	-0.08595	508.19357	29.41258	1323.22888	-939.59320	
1738	17.370	-756.42902	19.52765	-636.52142	813.81360	20.82900	-642.01038	-664.41437	0.23293	498.36615	777.92957	-0.45619	508.30814	30.15917	1323.80676	-938.47345	
1739	17.380	-755.92389	20.11207	-636.42883	814.17883	21.40252	-642.10138	-663.87756	-0.07027	498.47327	778.47864	-0.80278	508.20175	30.17173	1324.56165	-937.65784	
1740	17.390	-755.40192	20.55445	-636.44928	814.77911	21.88360	-641.83240	-663.33185	-0.53591	498.55795	779.04047	-1.20170	508.31735	31.19293	1325.31824	-936.49878	
1741	17.400	-754.63483	20.82333	-636.22339	815.38458	22.43845	-641.44678	-662.81146	-0.90203	498.67169	779.61627	-1.46828	508.43350	31.79323	1325.88904	-935.94995	
1742	17.410	-754.12488	21.09276	-636.02014	815.64899	22.67095	-641.45245	-662.37384	-1.11017	498.78455	780.17523	-1.79601	508.48843	32.07244	1326.38892	-934.68512	
1743	17.420	-753.58905	21.45766	-635.78986	816.18811	23.15934	-641.34540	-661.98163	-1.39143	498.86353	780.52271	-2.16718	508.54767	32.64561	1327.26672	-933.76031	
1744	17.430	-753.19720	22.11368	-635.84778	816.65686	23.74967	-641.34595	-661.50311	-1.58819	499.03619	780.87848	-2.45775	508.65759	33.04713	1327.95984	-932.53369	
1745	17.440	-752.79907	22.46313	-635.69580	817.02173	24.13631	-641.26288	-660.88995	-2.07688	499.16901	781.25085	-2.89066	508.67792	33.59116	1328.37048	-931.28778	
1746	17.450	-752.58295	22.90479	-635.60034	817.26147	24.60518	-641.13110	-660.49463	-2.53442	499.32602	781.36310	-3.14407	508.89133	34.00435	1329.13147	-930.46442	
